.
 
http://www.scenetime.com    -   SceneTime [ We been having it ] !!!


How come you press harder on a remote control when you know the battery is dead? so you better seed to get speed ;)

        Seed back for speed


...................................NFO:.................................................[img]http://img860.imageshack.us/img860/7580/51922384front.jpg[/img]

[color=blue][size=4][b]Beastly.2011.BDRip.XVID.AC3.HQ.Hive-CM8[/b][/size][/color]


[b]Thx Hive


CM8 Doing It Right The First Time :D

Source Bluray

Video: 720x304 @bitrate 2100 2pass
Audio: English DTS to AC3 5.1 @448
Sample: yes included
Subs: yes english in srt /subs

Bonus: Main title song /titlesong[/b]


[url]http://www.imdb.com/title/tt1152398/[/url]


General
Complete name                    : Beastly.2011.BDRip.XVID.AC3.HQ.Hive-CM8.avi
Format                           : AVI
Format/Info                      : Audio Video Interleave
File size                        : 1.58 GiB
Duration                         : 1h 26mn
Overall bit rate                 : 2 621 Kbps
Writing application              : Nandub v1.0rc2
Writing library                  : Nandub build 1853/release

Video
ID                               : 0
Format                           : MPEG-4 Visual
Format profile                   : Advanced Simple@L5
Format settings, BVOP            : 1
Format settings, QPel            : Yes
Format settings, GMC             : No warppoints
Format settings, Matrix          : Default (H.263)
Muxing mode                      : Packed bitstream
Codec ID                         : XVID
Codec ID/Hint                    : XviD
Duration                         : 1h 26mn
Bit rate                         : 2 163 Kbps
Width                            : 720 pixels
Height                           : 304 pixels
Display aspect ratio             : 2.35:1
Frame rate                       : 23.976 fps
Color space                      : YUV
Chroma subsampling               : 4:2:0
Bit depth                        : 8 bits
Scan type                        : Progressive
Compression mode                 : Lossy
Bits/(Pixel*Frame)               : 0.412
Stream size                      : 1.30 GiB (83%)
Writing library                  : XviD 1.2.1 (UTC 2008-12-04)

Audio
ID                               : 1
Format                           : AC-3
Format/Info                      : Audio Coding 3
Mode extension                   : CM (complete main)
Codec ID                         : 2000
Duration                         : 1h 26mn
Bit rate mode                    : Constant
Bit rate                         : 448 Kbps
Channel(s)                       : 6 channels
Channel positions                : Front: L C R, Side: L R, LFE
Sampling rate                    : 48.0 KHz
Bit depth                        : 16 bits
Compression mode                 : Lossy
Stream size                      : 276 MiB (17%)
Alignment                        : Split accross interleaves
Interleave, duration             : 42 ms (1.00 video frame)
Interleave, preload duration     : 500 ms



Alex Pettyfer	 ... 	Kyle
Justin Bradley	... 	Student
Mary-Kate Olsen	... 	Kendra
Dakota Johnson	... 	Sloan
Erik Knudsen	... 	Trey
Vanessa Hudgens	... 	Lindy


A modern-day take on the "Beauty and the Beast" tale where a New York teen is 
transformed into a hideous monster in order to find true love. 
  

[img]http://img840.imageshack.us/img840/9881/bbee.png[/img]
[img]http://img804.imageshack.us/img804/7322/37420749.png[/img]
[img]http://img171.imageshack.us/img171/5384/bbebebebebebebee.png[/img]
[img]http://img860.imageshack.us/img860/160/bbebebebebebee.png[/img]
[img]http://img190.imageshack.us/img190/7256/bbebebebebee.png[/img]
[img]http://img97.imageshack.us/img97/9764/bbebebebee.png[/img]
[img]http://img831.imageshack.us/img831/8260/bbebebee.png[/img]
[img]http://img684.imageshack.us/img684/7817/bbebee.png[/img]


cover+label:

[img]http://img685.imageshack.us/img685/3347/beastly2011label.jpg[/img]

[img]http://img137.imageshack.us/img137/473/beastly2011cover.jpg[/img]





Greetz

ViSiON,SANTi,MAGNET,THC,T0XiC,iNK,LKRG,IMAGiNE,WBZ,FLAWL3SS,NOVA
Vik,OneTwo,Rapeseed,D2U,SAFC,goldadvance,MEMORY100,KaN1vE,Unevano,Pinnz,Wayne,Mr Hive
and all P2P groups 
Great Work Guys :D

FYS

CM8@hushmail.com